<svg version="1.1" viewBox="0.0 0.0 2400.0 2400.0" fill="none" stroke="none" stroke-linecap="square" stroke-miterlimit="10" xmlns:xlink="http://www.w3.org/1999/xlink" xmlns="http://www.w3.org/2000/svg"><clipPath id="p.0"><path d="m0 0l2400.0 0l0 2400.0l-2400.0 0l0 -2400.0z" clip-rule="nonzero"/></clipPath><g clip-path="url(#p.0)"><path fill="#000000" fill-opacity="0.0" d="m0 0l2400.0 0l0 2400.0l-2400.0 0z" fill-rule="evenodd"/><path fill="#000000" d="m-0.023622047 1199.9987l0 0c0 -662.7417 537.2583 -1200.0 1200.0 -1200.0l0 0c318.2599 0 623.4845 126.42821 848.5281 351.47186c225.0437 225.04367 351.47192 530.2683 351.47192 848.5281l0 0c0 662.7417 -537.2583 1200.0001 -1200.0 1200.0001l0 0c-662.74164 0 -1200.0 -537.2584 -1200.0 -1200.0001z" fill-rule="evenodd"/><path fill="#ffffff" d="m70.82657 1200.0896l0 0c0 -624.43585 506.2053 -1130.6411 1130.6412 -1130.6411l0 0c299.86475 0 587.44775 119.12079 799.48413 331.15714c212.03638 212.03635 331.15698 499.61942 331.15698 799.484l0 0c0 624.4359 -506.2052 1130.6414 -1130.6411 1130.6414l0 0c-624.4359 0 -1130.6412 -506.20544 -1130.6412 -1130.6414zm229.88196 0l0 0c0 497.4756 403.28366 900.7593 900.7593 900.7593c497.4756 0 900.7593 -403.2837 900.7593 -900.7593l0 0c0 -497.47552 -403.2837 -900.7592 -900.7593 -900.7592l0 0c-497.4756 0 -900.7593 403.2837 -900.7593 900.7592z" fill-rule="evenodd"/><path fill="#ffffff" d="m1107.2512 248.70439l188.2799 0l0 306.45752l-188.2799 0z" fill-rule="evenodd"/><path fill="#ffffff" d="m1105.187 1811.546l188.28003 0l0 348.7638l-188.28003 0z" fill-rule="evenodd"/><path fill="#ffffff" d="m560.3885 1113.0209l0 174.11963l-329.184 0l0 -174.11963z" fill-rule="evenodd"/><path fill="#ffffff" d="m938.94525 1200.0233l0 0c0 -143.81091 116.58185 -260.39276 260.39276 -260.39276l0 0c69.060425 0 135.29236 27.434143 184.12549 76.26727c48.83313 48.83313 76.26721 115.06506 76.26721 184.12549l0 0c0 143.81091 -116.58179 260.3927 -260.3927 260.3927l0 0c-143.81091 0 -260.39276 -116.58179 -260.39276 -260.3927zm130.19635 0l0 0c0 71.90552 58.290894 130.19641 130.19641 130.19641c71.905396 0 130.19629 -58.290894 130.19629 -130.19641c0 -71.90552 -58.290894 -130.19641 -130.19629 -130.19641l0 0c-71.90552 0 -130.19641 58.290894 -130.19641 130.19641z" fill-rule="evenodd"/><path fill="#ffffff" d="m1808.5331 1061.3274l0 277.4375l-389.49646 0l0 -277.4375z" fill-rule="evenodd"/><path fill="#ffffff" d="m1130.5178 1200.0884l0 0c0 -38.04065 30.838013 -68.87866 68.87866 -68.87866l0 0c18.2677 0 35.78723 7.256836 48.70459 20.174072c12.917236 12.917236 20.174072 30.43689 20.174072 48.70459l0 0c0 38.04065 -30.838013 68.87866 -68.87866 68.87866l0 0c-38.04065 0 -68.87866 -30.838013 -68.87866 -68.87866z" fill-rule="evenodd"/><path fill="#ffffff" d="m1883.4584 384.83548l133.21191 133.212l-508.5481 508.5481l-133.21204 -133.21191z" fill-rule="evenodd"/><path fill="#ffffff" d="m1507.9143 1373.3207l-133.21204 133.21204l530.92505 530.9249l133.21191 -133.21191z" fill-rule="evenodd"/><path fill="#ffffff" d="m1662.6328 1700.3594l0 0c-273.80115 253.5741 -700.5794 239.93555 -957.6315 -30.603027c-257.05203 -270.53857 -248.86801 -697.45624 18.36383 -957.9443c267.2318 -260.48804 694.2192 -257.7599 958.10065 6.121582l-241.0752 241.07526c-131.9408 -131.94073 -345.43445 -133.30481 -479.05035 -3.060791c-133.6159 130.24402 -137.70795 343.70288 -9.181885 478.97217c128.52606 135.26929 341.9151 142.0885 478.81573 15.301514z" fill-rule="evenodd"/><path fill="#ffffff" d="m507.02136 372.43472l-133.21198 133.21198l419.0409 419.04092l133.21198 -133.21204z" fill-rule="evenodd"/><path fill="#ffffff" d="m708.79315 1559.4808l133.21204 133.21191l-348.23926 348.23926l-133.212 -133.21191z" fill-rule="evenodd"/><path fill="#000000" d="m2074.9585 980.43896l133.31079 36.565857l0 365.97565l-133.31079 36.565918z" fill-rule="evenodd"/><path fill="#000000" d="m2341.5627 1419.5498l-139.84668 -38.35852l0 -362.39038l139.84668 -38.35858z" fill-rule="evenodd"/><path fill="#ffffff" d="m2338.5305 1361.3411l-132.16309 -36.250977l0 -250.21375l132.16309 -36.250977z" fill-rule="evenodd"/><path fill="#ffffff" d="m1805.4469 1061.3474l288.8009 18.055298l0 241.1521l-288.8009 18.05542z" fill-rule="evenodd"/><path fill="#ffffff" d="m2055.8691 1038.6422l155.08374 36.72229l0 249.271l-155.08374 36.722412z" fill-rule="evenodd"/><path fill="#000000" d="m2056.529 1079.0906c4.4487305 -3.0257568 -0.4482422 -30.088501 23.216064 -31.849365c23.664307 -1.7608643 99.49048 20.328003 118.76953 21.28418c19.279297 0.95617676 1.6762695 -13.486206 -3.0947266 -15.546875c-4.77124 -2.060669 -15.924316 3.1829834 -25.531494 3.1829834c-9.606934 0 -17.602783 0.05456543 -32.111084 -3.1829834c-14.508057 -3.2375488 -41.332275 -13.162964 -54.937256 -16.24231c-13.60498 -3.0792236 -20.825195 -4.621704 -26.692871 -2.2333984c-5.867676 2.3883057 -7.9973145 11.414429 -8.513062 16.563354c-0.51586914 5.1488037 3.935669 9.659058 5.418091 14.329834c1.482666 4.6707764 -0.9719238 16.720337 3.4768066 13.69458z" fill-rule="evenodd"/><path fill="#000000" d="m2056.529 1320.998c4.4487305 3.0257568 -0.4482422 30.088501 23.216064 31.849365c23.664307 1.7608643 99.49048 -20.328003 118.76953 -21.28418c19.279297 -0.95617676 1.6762695 13.486206 -3.0947266 15.546875c-4.77124 2.060669 -15.924316 -3.1829834 -25.531494 -3.1829834c-9.606934 0 -17.602783 -0.05456543 -32.111084 3.1829834c-14.508057 3.2375488 -41.332275 13.162964 -54.937256 16.24231c-13.60498 3.0792236 -20.825195 4.621704 -26.692871 2.2333984c-5.867676 -2.3883057 -7.9973145 -11.414429 -8.513062 -16.563232c-0.51586914 -5.148926 3.935669 -9.65918 5.418091 -14.329956c1.482666 -4.6706543 -0.9719238 -16.720337 3.4768066 -13.69458z" fill-rule="evenodd"/><path fill="#000000" d="m2321.0046 1374.4469l0 0c43.64038 0 79.01807 -78.073364 79.01807 -174.38184c0 -96.30835 -35.377686 -174.38184 -79.01807 -174.38184l0 0c13.169678 114.43811 13.169678 234.32568 0 348.76367z" fill-rule="evenodd"/></g></svg>